<svg width="41" height="33" viewBox="0 0 41 33" fill="none" xmlns="http://www.w3.org/2000/svg">
<path fill-rule="evenodd" clip-rule="evenodd" d="M31.6677 13.0933C32.9187 10.8987 32.7113 8.19895 31.1398 6.22119L26.1564 0L15.0582 19.4302C13.8072 21.6248 14.0146 24.3245 15.5861 26.3023L20.5695 32.5235L31.6677 13.0933ZM13.3744 7.95624C14.8798 9.87735 15.0872 12.5771 13.8929 14.7056L5.05579 30.6292L1.28991 25.7958C-0.215506 23.8747 -0.422898 21.1749 0.771427 19.0464L9.60851 3.12279L13.3744 7.95624ZM39.3069 21.0449C40.5985 22.7156 40.6287 24.9659 39.3825 26.6707L35.7996 32.1632L32.5704 27.9609C31.2789 26.2902 31.2486 24.0398 32.4948 22.335L36.0778 16.8426L39.3069 21.0449Z" fill="#284DCD"/>
</svg>
